mtllib cube.mtl

o Cube

# Positions
v -1 -1 -1
v  1 -1 -1
v  1  1 -1
v -1  1 -1

v -1 -1  1
v  1 -1  1
v  1  1  1
v -1  1  1


# Texture coordinates
vt 0 0
vt 1 0
vt 1 1
vt 0 1


# Normals
vn  0  0 -1
vn  0  0  1
vn -1  0  0
vn  1  0  0
vn  0 -1  0
vn  0  1  0


# Front (-Z)
usemtl Red
f 4/4/1 3/3/1 2/2/1 1/1/1


# Back (+Z)
usemtl Green
f 6/2/2 7/3/2 8/4/2 5/1/2


# Left (-X)
usemtl Blue
f 5/4/3 8/3/3 4/2/3 1/1/3


# Right (+X)
usemtl Yellow
f 3/2/4 7/3/4 6/4/4 2/1/4


# Bottom (-Y)
usemtl Purple
f 2/2/5 6/3/5 5/4/5 1/1/5


# Top (+Y)
usemtl Cyan
f 8/4/6 7/3/6 3/2/6 4/1/6